<svg width="24" height="24" viewBox="0 0 24 24" fill="none" xmlns="http://www.w3.org/2000/svg">
<rect x="1" y="1" width="22" height="22" rx="11" fill="#1E1B4B"/>
<path d="M23 12C23 18.0751 18.0751 23 12 23C5.92487 23 1 18.0751 1 12C1 5.92487 5.92487 1 12 1C18.0751 1 23 5.92487 23 12ZM3.2 12C3.2 16.8601 7.13989 20.8 12 20.8C16.8601 20.8 20.8 16.8601 20.8 12C20.8 7.13989 16.8601 3.2 12 3.2C7.13989 3.2 3.2 7.13989 3.2 12Z" fill="#F43F5E"/>
<path d="M11 6C11 5.44772 11.4477 5 12 5V5C12.5523 5 13 5.44772 13 6V13H11.75C11.3358 13 11 12.6642 11 12.25V6Z" fill="white"/>
<path d="M11.433 12.982C11.1939 12.844 11.1119 12.5382 11.25 12.299L12 11L16.3301 13.5C16.8084 13.7761 16.9723 14.3877 16.6962 14.866V14.866C16.42 15.3443 15.8084 15.5082 15.3301 15.232L11.433 12.982Z" fill="white"/>
</svg>
