<svg width="24" height="24" viewBox="0 0 24 24" fill="none" xmlns="http://www.w3.org/2000/svg">
<rect x="1" y="1" width="22" height="22" rx="11" fill="white"/>
<path d="M23 12C23 18.0751 18.0751 23 12 23C5.92487 23 1 18.0751 1 12C1 5.92487 5.92487 1 12 1C18.0751 1 23 5.92487 23 12ZM3.2 12C3.2 16.8601 7.13989 20.8 12 20.8C16.8601 20.8 20.8 16.8601 20.8 12C20.8 7.13989 16.8601 3.2 12 3.2C7.13989 3.2 3.2 7.13989 3.2 12Z" fill="#F43F5E"/>
<path d="M11 5C11 4.44772 11.4477 4 12 4C12.5523 4 13 4.44772 13 5V13H11.75C11.3358 13 11 12.6642 11 12.25V5Z" fill="black"/>
<path d="M11.433 12.982C11.1939 12.844 11.1119 12.5382 11.25 12.299L12 11L18.0622 14.5C18.5405 14.7761 18.7043 15.3877 18.4282 15.866C18.1521 16.3443 17.5405 16.5082 17.0622 16.232L11.433 12.982Z" fill="black"/>
</svg>
